<svg width="400" height="400" viewBox="0 0 400 400" fill="none" xmlns="http://www.w3.org/2000/svg">
<path d="M62.3594 200C68.772 204.362 73.8935 210.369 77.1875 217.391C84.375 232.219 84.375 250.797 84.375 268.75C84.375 306.672 86.2656 328.125 125 328.125C127.486 328.125 129.871 329.113 131.629 330.871C133.387 332.629 134.375 335.014 134.375 337.5C134.375 339.986 133.387 342.371 131.629 344.129C129.871 345.887 127.486 346.875 125 346.875C98.625 346.875 81.5469 338.125 72.8125 320.109C65.625 305.281 65.625 286.703 65.625 268.75C65.625 230.828 63.7344 209.375 25 209.375C22.5136 209.375 20.129 208.387 18.3709 206.629C16.6127 204.871 15.625 202.486 15.625 200C15.625 197.514 16.6127 195.129 18.3709 193.371C20.129 191.613 22.5136 190.625 25 190.625C63.7344 190.625 65.625 169.172 65.625 131.25C65.625 113.297 65.625 94.7188 72.8125 79.8906C81.5469 61.875 98.625 53.125 125 53.125C127.486 53.125 129.871 54.1127 131.629 55.8709C133.387 57.629 134.375 60.0136 134.375 62.5C134.375 64.9864 133.387 67.371 131.629 69.1291C129.871 70.8873 127.486 71.875 125 71.875C86.2656 71.875 84.375 93.3281 84.375 131.25C84.375 149.203 84.375 167.781 77.1875 182.609C73.8935 189.631 68.772 195.638 62.3594 200ZM375 190.625C336.266 190.625 334.375 169.172 334.375 131.25C334.375 113.297 334.375 94.7188 327.187 79.8906C318.453 61.875 301.375 53.125 275 53.125C272.514 53.125 270.129 54.1127 268.371 55.8709C266.613 57.629 265.625 60.0136 265.625 62.5C265.625 64.9864 266.613 67.371 268.371 69.1291C270.129 70.8873 272.514 71.875 275 71.875C313.734 71.875 315.625 93.3281 315.625 131.25C315.625 149.203 315.625 167.781 322.813 182.609C326.107 189.631 331.228 195.638 337.641 200C331.228 204.362 326.107 210.369 322.813 217.391C315.625 232.219 315.625 250.797 315.625 268.75C315.625 306.672 313.734 328.125 275 328.125C272.514 328.125 270.129 329.113 268.371 330.871C266.613 332.629 265.625 335.014 265.625 337.5C265.625 339.986 266.613 342.371 268.371 344.129C270.129 345.887 272.514 346.875 275 346.875C301.375 346.875 318.453 338.125 327.187 320.109C334.375 305.281 334.375 286.703 334.375 268.75C334.375 230.828 336.266 209.375 375 209.375C377.486 209.375 379.871 208.387 381.629 206.629C383.387 204.871 384.375 202.486 384.375 200C384.375 197.514 383.387 195.129 381.629 193.371C379.871 191.613 377.486 190.625 375 190.625Z" fill="#009689"/>
<path d="M243.75 125H156.25C152.935 125 149.755 126.317 147.411 128.661C145.067 131.005 143.75 134.185 143.75 137.5V275C143.751 276.115 144.05 277.21 144.616 278.171C145.183 279.132 145.996 279.924 146.972 280.464C147.947 281.005 149.05 281.274 150.165 281.245C151.28 281.215 152.367 280.888 153.312 280.297L200 251.117L246.695 280.297C247.641 280.886 248.727 281.212 249.841 281.24C250.955 281.268 252.056 280.998 253.03 280.458C254.005 279.918 254.817 279.127 255.383 278.167C255.949 277.208 256.249 276.114 256.25 275V137.5C256.25 134.185 254.933 131.005 252.589 128.661C250.245 126.317 247.065 125 243.75 125Z" fill="#009689"/>
</svg>
